<?xml version="1.0" encoding="utf-8"?><svg viewBox="0 0 36 36" xmlns="http://www.w3.org/2000/svg" xmlns:xlink="http://www.w3.org/1999/xlink"><style>:root>svg{display:none}:root>svg:target{display:block}</style><svg version="1.1" id="Arrow" x="0" y="0" xml:space="preserve" viewBox="0 0 12 12" xmlns="http://www.w3.org/2000/svg"><style>.ast1{fill:#2a2c31}</style><g id="aArrow-down"><g id="acircle-arow"><path id="aEllipse_1__x28_Stroke_x29_" class="ast1" d="M8 2C4.7 2 2 4.7 2 8s2.7 6 6 6 6-2.7 6-6-2.7-6-6-6zm0 11c-2.8 0-5-2.2-5-5s2.2-5 5-5 5 2.2 5 5-2.2 5-5 5z"/><path class="ast1" d="M10.3 8.3l-1.9 1.9-.1.1-.3.4-.3-.3s-.1 0-.1-.1l-1.9-2c-.2-.2-.2-.5 0-.7.2-.2.5-.2.7 0l1.2 1.1V5c0-.3.2-.5.5-.5s.4.2.4.5v3.8l1.2-1.1c.2-.2.5-.2.7 0 .1.1.1.5-.1.6z"/></g></g></svg><svg version="1.1" id="Arrow-1" x="0" y="0" xml:space="preserve" viewBox="0 0 20 20" xmlns="http://www.w3.org/2000/svg"><style>.bst1{fill:#2a2c31}</style><g id="bArrow-down-m"><g id="bcircle-arow"><path class="bst1" d="M12.3 16l-.3.4-.3-.4c.1.1.2.1.3.1s.2 0 .3-.1z" id="barrow"/><path id="bEllipse_1__x28_Stroke_x29_" class="bst1" d="M12 16.2c-.1 0-.2 0-.3-.1l.3.3.3-.3c-.1 0-.2.1-.3.1zm0 0c-.1 0-.2 0-.3-.1l.3.3.3-.3c-.1 0-.2.1-.3.1zm0 0c-.1 0-.2 0-.3-.1l.3.3.3-.3c-.1 0-.2.1-.3.1zM12 2C6.5 2 2 6.5 2 12s4.5 10 10 10 10-4.5 10-10S17.5 2 12 2zm0 19c-5 0-9-4-9-9s4-9 9-9 9 4 9 9-4 9-9 9zm-.3-5l.3.3.3-.3c-.1.1-.2.1-.3.1s-.2 0-.3-.1z"/><path class="bst1" d="M15.4 13l-3.1 3c-.1.1-.2.1-.3.1s-.2 0-.3-.1l-3.1-3c-.2-.2-.2-.5 0-.7.2-.2.5-.2.7 0l2.2 2.2V7c0-.3.2-.5.5-.5s.5.2.5.5v7.5l2.2-2.2c.2-.2.5-.2.7 0 .2.1.2.5 0 .7z"/></g></g></svg><svg version="1.1" id="Arrow-2" x="0" y="0" xml:space="preserve" viewBox="0 0 28 28" xmlns="http://www.w3.org/2000/svg"><style>.cst1{fill:#2a2c31}</style><g id="cArrow-down"><g id="ccircle-arow"><path id="cEllipse_1__x28_Stroke_x29_" class="cst1" d="M16 2C8.3 2 2 8.3 2 16s6.3 14 14 14 14-6.3 14-14S23.7 2 16 2zm0 27C8.8 29 3 23.2 3 16S8.8 3 16 3s13 5.8 13 13-5.8 13-13 13z"/><path id="carrow" class="cst1" d="M20.7 17.2L16 21.8l-.4-.4-4.3-4.3c-.2-.2-.2-.5 0-.7.2-.2.5-.2.7 0l3.4 3.4V9c0-.3.2-.5.5-.5s.5.2.5.5v10.9l3.4-3.4c.2-.2.5-.2.7 0 .3.2.3.5.2.7z"/></g></g></svg><svg version="1.1" id="Arrow-3" x="0" y="0" xml:space="preserve" viewBox="0 0 36 36" xmlns="http://www.w3.org/2000/svg"><style>.dst1{fill:#2a2c31}</style><g id="dArrow-down-xl"><g id="dcircle-arow"><path class="dst1" d="M26.2 21.8l-5.5 5.5-.1.1-.6.6-.7-.7-.1-.1-5.5-5.5c-.4-.4-.4-1 0-1.4.4-.4 1-.4 1.4 0l3.8 3.8V11c0-.5.5-1 1-1s1 .5 1 1v13.2l3.8-3.8c.4-.4 1-.4 1.4 0 .5.4.5 1 .1 1.4z" id="darrow"/><path id="dEllipse_1__x28_Stroke_x29_" class="dst1" d="M20 2C10.1 2 2 10.1 2 20s8.1 18 18 18 18-8.1 18-18S29.9 2 20 2zm0 34c-8.8 0-16-7.2-16-16S11.2 4 20 4s16 7.2 16 16-7.2 16-16 16z"/></g></g></svg></svg>