<?xml version="1.0" encoding="utf-8"?><svg viewBox="0 0 40 40" xmlns="http://www.w3.org/2000/svg" xmlns:xlink="http://www.w3.org/1999/xlink"><style>:root>svg{display:none}:root>svg:target{display:block}</style><svg viewBox="0 0 16 16" id="Arrow" xmlns="http://www.w3.org/2000/svg"><path d="M0 0h16v16H0z"/><g fill-rule="evenodd" clip-rule="evenodd"><path d="M8 4.5a.5.5 0 01.5.5v5a.5.5 0 01-1 0V5a.5.5 0 01.5-.5z"/><path d="M5.646 7.646a.5.5 0 01.708 0L8 9.293l1.646-1.647a.5.5 0 01.708.708L8 10.707 5.646 8.354a.5.5 0 010-.708z"/><path d="M8 13A5 5 0 108 3a5 5 0 000 10zm0 1A6 6 0 108 2a6 6 0 000 12z"/></g></svg><svg viewBox="0 0 24 24" id="Arrow-1" xmlns="http://www.w3.org/2000/svg"><path d="M0 0h24v24H0z"/><g fill-rule="evenodd" clip-rule="evenodd"><path d="M11.999 6.5a.5.5 0 01.5.5v8.667a.5.5 0 11-1 0V7a.5.5 0 01.5-.5z"/><path d="M8.58 12.246a.5.5 0 01.706 0L12 14.96l2.713-2.714a.5.5 0 11.707.708L12 16.374l-3.42-3.42a.5.5 0 010-.708z"/><path d="M12 21a9 9 0 100-18 9 9 0 000 18zm0 1c5.523 0 10-4.477 10-10S17.523 2 12 2 2 6.477 2 12s4.477 10 10 10z"/></g></svg><svg viewBox="0 0 32 32" id="Arrow-2" xmlns="http://www.w3.org/2000/svg"><path d="M0 0h32v32H0z"/><g fill-rule="evenodd" clip-rule="evenodd"><path d="M15.998 8.5a.5.5 0 01.5.5v12.133a.5.5 0 11-1 0V9a.5.5 0 01.5-.5z"/><path d="M11.351 16.486a.5.5 0 01.708 0l3.94 3.94 3.94-3.94a.5.5 0 01.706.707l-4.647 4.647-4.646-4.646a.5.5 0 010-.708z"/><path d="M16 29c7.18 0 13-5.82 13-13S23.18 3 16 3 3 8.82 3 16s5.82 13 13 13zm0 1c7.732 0 14-6.268 14-14S23.732 2 16 2 2 8.268 2 16s6.268 14 14 14z"/></g></svg><svg viewBox="0 0 40 40" id="Arrow-3" xmlns="http://www.w3.org/2000/svg"><path d="M0 0h40v40H0z"/><g fill-rule="evenodd" clip-rule="evenodd"><path d="M19.998 10a1 1 0 011 1v15.6a1 1 0 11-2 0V11a1 1 0 011-1z"/><path d="M13.771 20.373a1 1 0 011.415 0l4.813 4.813 4.812-4.813a1 1 0 011.415 1.414l-6.227 6.227-6.228-6.227a1 1 0 010-1.414z"/><path d="M20 36c8.837 0 16-7.163 16-16S28.837 4 20 4 4 11.163 4 20s7.163 16 16 16zm0 2c9.941 0 18-8.059 18-18S29.941 2 20 2 2 10.059 2 20s8.059 18 18 18z"/></g></svg></svg>