<svg version="1.1" id="Arrow-m" xmlns="http://www.w3.org/2000/svg" x="0" y="0" viewBox="0 0 24 24" xml:space="preserve"><style>.st1{fill:#2a2c31}</style><g id="Arrow-down-m"><g id="circle-arow"><path class="st1" d="M12.3 16l-.3.4-.3-.4c.1.1.2.1.3.1s.2 0 .3-.1z" id="arrow"/><path id="Ellipse_1__x28_Stroke_x29_" class="st1" d="M12 16.2c-.1 0-.2 0-.3-.1l.3.3.3-.3c-.1 0-.2.1-.3.1zm0 0c-.1 0-.2 0-.3-.1l.3.3.3-.3c-.1 0-.2.1-.3.1zm0 0c-.1 0-.2 0-.3-.1l.3.3.3-.3c-.1 0-.2.1-.3.1zM12 2C6.5 2 2 6.5 2 12s4.5 10 10 10 10-4.5 10-10S17.5 2 12 2zm0 19c-5 0-9-4-9-9s4-9 9-9 9 4 9 9-4 9-9 9zm-.3-5l.3.3.3-.3c-.1.1-.2.1-.3.1s-.2 0-.3-.1z"/><path class="st1" d="M15.4 13l-3.1 3c-.1.1-.2.1-.3.1s-.2 0-.3-.1l-3.1-3c-.2-.2-.2-.5 0-.7.2-.2.5-.2.7 0l2.2 2.2V7c0-.3.2-.5.5-.5s.5.2.5.5v7.5l2.2-2.2c.2-.2.5-.2.7 0 .2.1.2.5 0 .7z"/></g></g></svg>