<svg version="1.1" id="Arrow-s" xmlns="http://www.w3.org/2000/svg" x="0" y="0" viewBox="0 0 16 16" xml:space="preserve"><style>.st1{fill:#2a2c31}</style><g id="Arrow-down"><g id="circle-arow"><path id="Ellipse_1__x28_Stroke_x29_" class="st1" d="M8 2C4.7 2 2 4.7 2 8s2.7 6 6 6 6-2.7 6-6-2.7-6-6-6zm0 11c-2.8 0-5-2.2-5-5s2.2-5 5-5 5 2.2 5 5-2.2 5-5 5z"/><path class="st1" d="M10.3 8.3l-1.9 1.9-.1.1-.3.4-.3-.3s-.1 0-.1-.1l-1.9-2c-.2-.2-.2-.5 0-.7.2-.2.5-.2.7 0l1.2 1.1V5c0-.3.2-.5.5-.5s.4.2.4.5v3.8l1.2-1.1c.2-.2.5-.2.7 0 .1.1.1.5-.1.6z"/></g></g></svg>