<svg version="1.1" id="Arrow-l" xmlns="http://www.w3.org/2000/svg" x="0" y="0" viewBox="0 0 32 32" xml:space="preserve"><style>.st1{fill:#2a2c31}</style><g id="Arrow-down"><g id="circle-arow"><path id="Ellipse_1__x28_Stroke_x29_" class="st1" d="M16 2C8.3 2 2 8.3 2 16s6.3 14 14 14 14-6.3 14-14S23.7 2 16 2zm0 27C8.8 29 3 23.2 3 16S8.8 3 16 3s13 5.8 13 13-5.8 13-13 13z"/><path id="arrow" class="st1" d="M20.7 17.2L16 21.8l-.4-.4-4.3-4.3c-.2-.2-.2-.5 0-.7.2-.2.5-.2.7 0l3.4 3.4V9c0-.3.2-.5.5-.5s.5.2.5.5v10.9l3.4-3.4c.2-.2.5-.2.7 0 .3.2.3.5.2.7z"/></g></g></svg>