<svg width="40" height="40" fill="none" xmlns="http://www.w3.org/2000/svg"><path fill="#fff" d="M0 0h40v40H0z"/><g fill-rule="evenodd" clip-rule="evenodd" fill="#2A2C31"><path d="M19.998 10a1 1 0 011 1v15.6a1 1 0 11-2 0V11a1 1 0 011-1z"/><path d="M13.771 20.373a1 1 0 011.415 0l4.813 4.813 4.812-4.813a1 1 0 011.415 1.414l-6.227 6.227-6.228-6.227a1 1 0 010-1.414z"/><path d="M20 36c8.837 0 16-7.163 16-16S28.837 4 20 4 4 11.163 4 20s7.163 16 16 16zm0 2c9.941 0 18-8.059 18-18S29.941 2 20 2 2 10.059 2 20s8.059 18 18 18z"/></g></svg>