<svg version="1.1" id="Layer_1" xmlns="http://www.w3.org/2000/svg" x="0" y="0" viewBox="0 0 40 40" xml:space="preserve"><style>.st1{fill:#2a2c31}</style><g id="Arrow-down-xl"><g id="circle-arow"><path class="st1" d="M26.2 21.8l-5.5 5.5-.1.1-.6.6-.7-.7-.1-.1-5.5-5.5c-.4-.4-.4-1 0-1.4.4-.4 1-.4 1.4 0l3.8 3.8V11c0-.5.5-1 1-1s1 .5 1 1v13.2l3.8-3.8c.4-.4 1-.4 1.4 0 .5.4.5 1 .1 1.4z" id="arrow"/><path id="Ellipse_1__x28_Stroke_x29_" class="st1" d="M20 2C10.1 2 2 10.1 2 20s8.1 18 18 18 18-8.1 18-18S29.9 2 20 2zm0 34c-8.8 0-16-7.2-16-16S11.2 4 20 4s16 7.2 16 16-7.2 16-16 16z"/></g></g></svg>