<svg width="32" height="32" fill="none" xmlns="http://www.w3.org/2000/svg"><path fill="#fff" d="M0 0h32v32H0z"/><g fill-rule="evenodd" clip-rule="evenodd" fill="#2A2C31"><path d="M15.998 8.5a.5.5 0 01.5.5v12.133a.5.5 0 11-1 0V9a.5.5 0 01.5-.5z"/><path d="M11.351 16.486a.5.5 0 01.708 0l3.94 3.94 3.94-3.94a.5.5 0 01.706.707l-4.647 4.647-4.646-4.646a.5.5 0 010-.708z"/><path d="M16 29c7.18 0 13-5.82 13-13S23.18 3 16 3 3 8.82 3 16s5.82 13 13 13zm0 1c7.732 0 14-6.268 14-14S23.732 2 16 2 2 8.268 2 16s6.268 14 14 14z"/></g></svg>