<?xml version="1.0" encoding="utf-8"?>
<!-- Generator: Adobe Illustrator 21.0.1, SVG Export Plug-In . SVG Version: 6.00 Build 0)  -->
<svg version="1.1" id="Arrow-s" xmlns="http://www.w3.org/2000/svg" xmlns:xlink="http://www.w3.org/1999/xlink" x="0px" y="0px"
	 viewBox="0 0 16 16" style="enable-background:new 0 0 16 16;" xml:space="preserve">
<style type="text/css">
		.st1{fill:#2A2C31;}
</style>
<g id="Arrow-down">
	
	<g id="circle-arow">
		<path id="Ellipse_1__x28_Stroke_x29_" class="st1" d="M8,2C4.7,2,2,4.7,2,8s2.7,6,6,6s6-2.7,6-6S11.3,2,8,2z M8,13
			c-2.8,0-5-2.2-5-5s2.2-5,5-5s5,2.2,5,5S10.8,13,8,13z"/>
		<path class="st1" d="M10.3,8.3l-1.9,1.9l0,0c0,0-0.1,0.1-0.1,0.1l0,0L8,10.7l-0.3-0.3l0,0c0,0-0.1,0-0.1-0.1l0,0L5.7,8.3
			c-0.2-0.2-0.2-0.5,0-0.7c0.2-0.2,0.5-0.2,0.7,0l1.2,1.1V5c0-0.3,0.2-0.5,0.5-0.5S8.5,4.7,8.5,5v3.8l1.2-1.1c0.2-0.2,0.5-0.2,0.7,0
			C10.5,7.8,10.5,8.2,10.3,8.3z"/>
	</g>
</g>
</svg>
