<?xml version="1.0" encoding="utf-8"?>
<!-- Generator: Adobe Illustrator 21.0.1, SVG Export Plug-In . SVG Version: 6.00 Build 0)  -->
<svg version="1.1" id="Arrow-l" xmlns="http://www.w3.org/2000/svg" xmlns:xlink="http://www.w3.org/1999/xlink" x="0px" y="0px"
	 viewBox="0 0 32 32" style="enable-background:new 0 0 32 32;" xml:space="preserve">
<style type="text/css">
	
	.st1{fill:#2A2C31;}
</style>
<g id="Arrow-down">
		<g id="circle-arow">
		<path id="Ellipse_1__x28_Stroke_x29_" class="st1" d="M16,2C8.3,2,2,8.3,2,16s6.3,14,14,14s14-6.3,14-14S23.7,2,16,2z M16,29
			C8.8,29,3,23.2,3,16S8.8,3,16,3s13,5.8,13,13S23.2,29,16,29z"/>
		<path id="arrow" class="st1" d="M20.7,17.2L16,21.8l-0.4-0.4l-4.3-4.3c-0.2-0.2-0.2-0.5,0-0.7c0.2-0.2,0.5-0.2,0.7,0l3.4,3.4V9
			c0-0.3,0.2-0.5,0.5-0.5c0.3,0,0.5,0.2,0.5,0.5v10.9l3.4-3.4c0.2-0.2,0.5-0.2,0.7,0C20.8,16.7,20.8,17,20.7,17.2z"/>
		</g>
</g>
</svg>
