<svg width="24" height="24" viewBox="0 0 24 24" fill="none" xmlns="http://www.w3.org/2000/svg">
<g id="Arrow">
<rect width="24" height="24" fill="white"/>
<g id="circle-arow">
<g id="arrow">
<path id="Vector 5 (Stroke)" fill-rule="evenodd" clip-rule="evenodd" d="M11.999 6.5C12.2752 6.5 12.499 6.72386 12.499 7V15.6667C12.499 15.9428 12.2752 16.1667 11.999 16.1667C11.7229 16.1667 11.499 15.9428 11.499 15.6667V7C11.499 6.72386 11.7229 6.5 11.999 6.5Z" fill="#2A2C31"/>
<path id="Vector 6 (Stroke)" fill-rule="evenodd" clip-rule="evenodd" d="M8.57906 12.2465C8.77433 12.0512 9.09091 12.0512 9.28617 12.2465L11.9993 14.9596L14.7124 12.2465C14.9077 12.0512 15.2242 12.0512 15.4195 12.2465C15.6148 12.4417 15.6148 12.7583 15.4195 12.9536L11.9993 16.3738L8.57906 12.9536C8.3838 12.7583 8.3838 12.4417 8.57906 12.2465Z" fill="#2A2C31"/>
</g>
<path id="Ellipse 1 (Stroke)" fill-rule="evenodd" clip-rule="evenodd" d="M12 21C16.9706 21 21 16.9706 21 12C21 7.02944 16.9706 3 12 3C7.02944 3 3 7.02944 3 12C3 16.9706 7.02944 21 12 21ZM12 22C17.5228 22 22 17.5228 22 12C22 6.47715 17.5228 2 12 2C6.47715 2 2 6.47715 2 12C2 17.5228 6.47715 22 12 22Z" fill="#2A2C31"/>
</g>
</g>
</svg>
