<svg width="16" height="16" viewBox="0 0 16 16" fill="none" xmlns="http://www.w3.org/2000/svg">
<g id="Arrow">
<rect width="16" height="16" fill="white"/>
<g id="circle-arow">
<g id="arrow">
<path id="Vector 5 (Stroke)" fill-rule="evenodd" clip-rule="evenodd" d="M8 4.5C8.27614 4.5 8.5 4.72386 8.5 5V10C8.5 10.2761 8.27614 10.5 8 10.5C7.72386 10.5 7.5 10.2761 7.5 10V5C7.5 4.72386 7.72386 4.5 8 4.5Z" fill="#2A2C31"/>
<path id="Vector 6 (Stroke)" fill-rule="evenodd" clip-rule="evenodd" d="M5.64645 7.64645C5.84171 7.45118 6.15829 7.45118 6.35355 7.64645L8 9.29289L9.64645 7.64645C9.84171 7.45118 10.1583 7.45118 10.3536 7.64645C10.5488 7.84171 10.5488 8.15829 10.3536 8.35355L8 10.7071L5.64645 8.35355C5.45118 8.15829 5.45118 7.84171 5.64645 7.64645Z" fill="#2A2C31"/>
</g>
<path id="Ellipse 1 (Stroke)" fill-rule="evenodd" clip-rule="evenodd" d="M8 13C10.7614 13 13 10.7614 13 8C13 5.23858 10.7614 3 8 3C5.23858 3 3 5.23858 3 8C3 10.7614 5.23858 13 8 13ZM8 14C11.3137 14 14 11.3137 14 8C14 4.68629 11.3137 2 8 2C4.68629 2 2 4.68629 2 8C2 11.3137 4.68629 14 8 14Z" fill="#2A2C31"/>
</g>
</g>
</svg>
