<?xml version="1.0" encoding="utf-8"?>
<!-- Generator: Adobe Illustrator 21.0.1, SVG Export Plug-In . SVG Version: 6.00 Build 0)  -->
<svg version="1.1" id="Layer_1" xmlns="http://www.w3.org/2000/svg" xmlns:xlink="http://www.w3.org/1999/xlink" x="0px" y="0px"
	 viewBox="0 0 40 40" style="enable-background:new 0 0 40 40;" xml:space="preserve">
<style type="text/css">
	.st1{fill:#2A2C31;}
</style>
<g id="Arrow-down-xl">
	
	<g id="circle-arow">
		<g id="arrow">
			<path class="st1" d="M26.2,21.8l-5.5,5.5l-0.1,0.1L20,28l-0.7-0.7l-0.1-0.1l-5.5-5.5c-0.4-0.4-0.4-1,0-1.4c0.4-0.4,1-0.4,1.4,0
				l3.8,3.8V11c0-0.5,0.5-1,1-1s1,0.5,1,1v13.2l3.8-3.8c0.4-0.4,1-0.4,1.4,0C26.6,20.8,26.6,21.4,26.2,21.8z"/>
		</g>
		<path id="Ellipse_1__x28_Stroke_x29_" class="st1" d="M20,2C10.1,2,2,10.1,2,20s8.1,18,18,18s18-8.1,18-18S29.9,2,20,2z M20,36
			c-8.8,0-16-7.2-16-16S11.2,4,20,4s16,7.2,16,16S28.8,36,20,36z"/>
	</g>
</g>
</svg>
