<svg width="40" height="40" viewBox="0 0 40 40" fill="none" xmlns="http://www.w3.org/2000/svg">
<g id="Arrow">
<rect width="40" height="40" fill="white"/>
<g id="circle-arow">
<g id="arrow">
<path id="Vector 5 (Stroke)" fill-rule="evenodd" clip-rule="evenodd" d="M19.998 10C20.5503 10 20.998 10.4477 20.998 11V26.6C20.998 27.1523 20.5503 27.6 19.998 27.6C19.4458 27.6 18.998 27.1523 18.998 26.6V11C18.998 10.4477 19.4458 10 19.998 10Z" fill="#2A2C31"/>
<path id="Vector 6 (Stroke)" fill-rule="evenodd" clip-rule="evenodd" d="M13.7714 20.3729C14.1619 19.9824 14.7951 19.9824 15.1856 20.3729L19.9985 25.1858L24.8114 20.3729C25.2019 19.9824 25.8351 19.9824 26.2256 20.3729C26.6161 20.7634 26.6161 21.3966 26.2256 21.7871L19.9985 28.0142L13.7714 21.7871C13.3809 21.3966 13.3809 20.7634 13.7714 20.3729Z" fill="#2A2C31"/>
</g>
<path id="Ellipse 1 (Stroke)" fill-rule="evenodd" clip-rule="evenodd" d="M20 36C28.8366 36 36 28.8366 36 20C36 11.1634 28.8366 4 20 4C11.1634 4 4 11.1634 4 20C4 28.8366 11.1634 36 20 36ZM20 38C29.9411 38 38 29.9411 38 20C38 10.0589 29.9411 2 20 2C10.0589 2 2 10.0589 2 20C2 29.9411 10.0589 38 20 38Z" fill="#2A2C31"/>
</g>
</g>
</svg>
