<?xml version="1.0" encoding="utf-8"?>
<!-- Generator: Adobe Illustrator 21.0.1, SVG Export Plug-In . SVG Version: 6.00 Build 0)  -->
<svg version="1.1" id="Arrow-m" xmlns="http://www.w3.org/2000/svg" xmlns:xlink="http://www.w3.org/1999/xlink" x="0px" y="0px"
	 viewBox="0 0 24 24" style="enable-background:new 0 0 24 24;" xml:space="preserve">
<style type="text/css">

	.st1{fill:#2A2C31;}
</style>
<g id="Arrow-down-m">
		<g id="circle-arow">
		<g id="arrow">
			<path class="st1" d="M12.3,16L12,16.4L11.7,16c0.1,0.1,0.2,0.1,0.3,0.1S12.2,16.1,12.3,16z"/>
		</g>
		<path id="Ellipse_1__x28_Stroke_x29_" class="st1" d="M12,16.2c-0.1,0-0.2,0-0.3-0.1l0.3,0.3l0.3-0.3C12.2,16.1,12.1,16.2,12,16.2
			z M12,16.2c-0.1,0-0.2,0-0.3-0.1l0.3,0.3l0.3-0.3C12.2,16.1,12.1,16.2,12,16.2z M12,16.2c-0.1,0-0.2,0-0.3-0.1l0.3,0.3l0.3-0.3
			C12.2,16.1,12.1,16.2,12,16.2z M12,2C6.5,2,2,6.5,2,12s4.5,10,10,10s10-4.5,10-10S17.5,2,12,2z M12,21c-5,0-9-4-9-9s4-9,9-9
			s9,4,9,9S17,21,12,21z M11.7,16l0.3,0.3l0.3-0.3c-0.1,0.1-0.2,0.1-0.3,0.1S11.8,16.1,11.7,16z"/>
		<path class="st1" d="M15.4,13L12.3,16c-0.1,0.1-0.2,0.1-0.3,0.1s-0.2,0-0.3-0.1L8.6,13c-0.2-0.2-0.2-0.5,0-0.7
			c0.2-0.2,0.5-0.2,0.7,0l2.2,2.2V7c0-0.3,0.2-0.5,0.5-0.5s0.5,0.2,0.5,0.5v7.5l2.2-2.2c0.2-0.2,0.5-0.2,0.7,0
			C15.6,12.4,15.6,12.8,15.4,13z"/>
	</g>
</g>
</svg>
